<svg id="efpK01nEq5i1" xmlns="http://www.w3.org/2000/svg" xmlns:xlink="http://www.w3.org/1999/xlink" viewBox="0 0 110 110" shape-rendering="geometricPrecision" text-rendering="geometricPrecision" width="110" height="110">
<style><![CDATA[
#efpK01nEq5i2_to {animation: efpK01nEq5i2_to__to 2000ms linear infinite normal forwards}@keyframes efpK01nEq5i2_to__to { 0% {transform: translate(62.500021px,47.546751px);animation-timing-function: cubic-bezier(0,0.925,0.195,1.01)} 80% {transform: translate(62.500021px,40.546751px)} 100% {transform: translate(62.500021px,40.546751px)}} #efpK01nEq5i4_tr {animation: efpK01nEq5i4_tr__tr 2000ms linear infinite normal forwards}@keyframes efpK01nEq5i4_tr__tr { 0% {transform: translate(63px,13.5px) rotate(-66.718732deg)} 20% {transform: translate(63px,13.5px) rotate(-66.718732deg);animation-timing-function: cubic-bezier(0.68,-0.55,0.265,1.55)} 50% {transform: translate(63px,13.5px) rotate(-9.769926deg)} 100% {transform: translate(63px,13.5px) rotate(-9.769926deg)}} #efpK01nEq5i5_tr {animation: efpK01nEq5i5_tr__tr 2000ms linear infinite normal forwards}@keyframes efpK01nEq5i5_tr__tr { 0% {transform: translate(63px,13.5px) rotate(50.846108deg)} 20% {transform: translate(63px,13.5px) rotate(50.846108deg);animation-timing-function: cubic-bezier(0.68,-0.55,0.265,1.55)} 45% {transform: translate(63px,13.5px) rotate(-7.041137deg)} 100% {transform: translate(63px,13.5px) rotate(-7.041137deg)}}
]]></style>
<g id="efpK01nEq5i2_to" transform="translate(62.500021,47.546751)"><g transform="translate(-62.500021,-14.546751)"><path d="M64.5615,23.0248c-.066-2.5603,0-9.5248,0-9.5248L61,14.2051v14.3884h3.5615v-5.5687Z" fill="none" stroke="#62b47f" stroke-linecap="square"/><g id="efpK01nEq5i4_tr" transform="translate(63,13.5) rotate(-66.718732)"><path d="M63,12.8916C64.5829,10.3953,66.6497,3.99995,72.3877,4s8.1123,1.34435,8.1123,1.34435-1.9206,3.26432-3.7594,4.80065c-4.0882,3.4157-13.4545,3.0367-13.4545,3.0367" transform="translate(-62.999997,-13.191401)" fill="none" stroke="#62b47f" stroke-linecap="round"/></g><g id="efpK01nEq5i5_tr" transform="translate(63,13.5) rotate(50.846108)"><path d="M61.295,14.5043c.2752-.0229.4797-.2645.4568-.5397s-.2645-.4797-.5397-.4568l.0829.9965ZM50.569,9.5895l.4638-.18697v0l-.4638.18697ZM45.0289,2.29257l.3483-.3588v0l-.3483.3588ZM60.2642,3.63674l-.3776.32769v0l.3776-.32769Zm2.5722,8.83316l-.408.289.756,1.0672.1488-1.2994-.4968-.0568ZM51.9182,3.54779c-.2612-.08948-.5455.04976-.635.311s.0497.54556.311.63504l.324-.94604Zm9.2939,9.96001c-1.1167.0929-3.2816.092-5.3698-.4649-2.097-.5593-4.0055-1.6462-4.8095-3.64037l-.9275.37394c.9767,2.42243,3.2562,3.63973,5.4793,4.23263c2.2318.5952,4.5187.5944,5.7104.4952l-.0829-.9965ZM51.0328,9.40253c-.9477-2.35049-2.3223-4.1767-3.4808-5.43742-.5799-.63112-1.1074-1.12249-1.5032-1.46879-.198-.17321-.3627-.30992-.4836-.40893-.0703-.05751-.0996-.08109-.1447-.11804-.0431-.03535-.0495-.04153-.0433-.03558l-.6965.71761c.2479.2406,3.6372,2.69191,5.4246,7.12509l.9275-.37394ZM45.3772,1.93377c.0004.00045.0067.0065.0156.01693.0078.00901.0271.03236.0469.06759.0181.03231.054.10508.0596.20681.0065.11867-.0308.24003-.1108.33713-.0691.08381-.1473.12203-.1852.13776-.0406.01684-.0731.0234-.0861.02578-.025.00456-.0381.00407-.0215.0035.0335-.00116.0758-.00039.172-.00083.0866-.0004.1964-.002.3296-.00846.5364-.02603,1.4172-.12923,2.7405-.52438l-.2862-.95819c-1.2489.37294-2.0499.46177-2.5028.48374-.1141.00554-.2084.00694-.2857.0073-.0676.00031-.1489-.00042-.202.00142-.0267.00092-.0738.00305-.1239.01221-.0255.00468-.0684.01403-.1172.03426-.046.01911-.1302.06132-.2032.14982-.0839.10178-.1228.22853-.116.3534.0058.10794.0442.18772.0667.22795.0424.07554.0966.12771.1132.14387l.6965-.71761Zm2.9606.26183c1.2453-.37187,3.413-.79222,5.643-.67586c2.2365.11669,4.4501.76708,5.9058,2.44469l.7553-.65538c-1.7101-1.97084-4.2452-2.66462-6.609-2.787955-2.3702-.123672-4.6544.320084-5.9813.716315l.2862.95819ZM59.8866,3.96443c1.1949,1.37715,1.8594,3.06748,2.1989,4.6408.3398,1.57447.3468,2.99827.2542,3.80777l.9935.1137c.1052-.9187.0924-2.4521-.2702-4.13242-.3629-1.6815-1.0835-3.54362-2.4211-5.08523l-.7553.65538Zm3.3578,8.21637C61.76,10.0854,57.4361,5.43785,51.9182,3.54779l-.324.94604c5.2457,1.79684,9.4167,6.26397,10.8342,8.26507l.816-.5781Z" transform="translate(-62.999996,-13.499997)" fill="#62b47f"/></g></g></g><rect width="46" height="25" rx="0" ry="0" transform="matrix(1 0 0 1.559998 36 48.000025)" fill="#fff"/><path d="M19.9113,17.436h19.404c2.6535.1653,12.9359,7.436,12.9359,7.436h14.9261c8.9557,4.4617,0,10.4105,0,10.4105M19.9113,17.436v-4.9573c0-.8263-.4975-2.4787-2.4877-2.4787s-9.78485,0-13.43345,0C3.32677,10,2,10.3966,2,11.9829s0,25.1173,0,36.6844c0,.661.49754,1.983,2.48768,1.983s10.11662,0,13.93102,0c.4976,0,1.4926-.3966,1.4926-1.983c0-1.5863,0-21.4818,0-31.2313Zm47.266,17.8465h-26.3694m26.3694,0l22.3892-8.9233C98.0246,23.3848,103,31.3166,103,31.3166L88.0739,38.9297L61.2069,52.6332c-2.9852.661-11.8414.8923-23.3842-3.4701s-15.092-5.7836-15.4237-5.9489" transform="translate(0 25)" fill="none" stroke="#0f9235" stroke-width="4" stroke-linecap="round"/></svg>
